# xmcd CD database file generated by OrangeCD 5.2
#
# Track frame offsets:
#	150
#	22965
#	54172
#	82112
#	116205
#	159845
#	193722
#	236520
#
# Disc length: 3530 seconds
#
# Revision: 5
# Processed by: cddbd v1.5.1PL0 Copyright (c) Steve Scherf et al.
# Submitted via: OrangeCD 5.2
#
DISCID=5b0dc808
DTITLE=Second Vision - Visionary Live
DYEAR=1997
DGENRE=Jazz+Funk
TTITLE0=Iron Nerves
TTITLE1=We Know
TTITLE2=Soulmate
TTITLE3=Visionary Life
TTITLE4=Father's Mood
TTITLE5=Corner Pocket
TTITLE6=My Horny Little Seahorse
TTITLE7=Club Sandwich
EXTD=\n YEAR: 1997
EXTT0=
EXTT1=
EXTT2=
EXTT3=
EXTT4=
EXTT5=
EXTT6=
EXTT7=
PLAYORDER=
